<?xml version="1.0" standalone="no"?>
<!DOCTYPE svg PUBLIC "-//W3C//DTD SVG 20010904//EN"
 "http://www.w3.org/TR/2001/REC-SVG-20010904/DTD/svg10.dtd">
<svg version="1.0" xmlns="http://www.w3.org/2000/svg"
 width="500.000000pt" height="500.000000pt" viewBox="0 0 500.000000 500.000000"
 preserveAspectRatio="xMidYMid meet">
<metadata>
Created by potrace 1.11, written by Peter Selinger 2001-2013
</metadata>
<g transform="translate(0.000000,500.000000) scale(0.100000,-0.100000)"
fill="#000000" stroke="none">
<path d="M2483 4313 c-18 -2 -33 -8 -33 -14 0 -14 54 -11 76 6 20 15 19 16
-43 8z"/>
<path d="M2510 4278 c0 -4 -14 -8 -31 -8 -29 0 -146 -47 -138 -55 8 -8 89 8
89 17 0 5 7 2 16 -7 10 -9 20 -12 23 -7 3 5 43 9 89 8 45 -1 82 2 82 6 0 3 3
13 6 21 4 11 -4 17 -28 23 -45 11 -108 12 -108 2z"/>
<path d="M2241 4208 c-29 -10 -27 -32 2 -24 12 3 30 6 40 6 9 0 17 6 17 14 0
16 -25 17 -59 4z"/>
<path d="M2547 4194 c-2 -2 -24 -4 -50 -5 -36 -2 -47 -6 -47 -18 0 -14 10 -16
65 -11 35 3 70 11 77 18 6 6 8 12 3 13 -6 0 -18 2 -27 4 -9 2 -18 1 -21 -1z"/>
<path d="M2098 4173 c-54 -22 -47 -35 7 -15 25 9 45 20 45 24 0 11 -9 9 -52
-9z"/>
<path d="M2412 4182 c-26 -8 -31 -25 -8 -30 9 -2 16 2 16 8 0 6 5 8 10 5 6 -3
10 1 10 9 0 9 -1 16 -2 15 -2 -1 -13 -4 -26 -7z"/>
<path d="M2250 4140 c0 -5 5 -10 10 -10 6 0 10 5 10 10 0 6 -4 10 -10 10 -5 0
-10 -4 -10 -10z"/>
<path d="M1950 4110 c-13 -8 -12 -10 3 -10 9 0 17 5 17 10 0 12 -1 12 -20 0z"/>
<path d="M2228 4102 c-27 -8 -48 -19 -48 -23 0 -8 33 -2 65 11 11 5 34 13 50
18 28 10 28 10 5 10 -14 0 -46 -7 -72 -16z"/>
<path d="M2325 4049 c-27 -5 -57 -9 -65 -10 -30 -2 -80 -21 -80 -30 0 -6 -14
-15 -32 -21 -28 -10 -30 -12 -12 -19 16 -6 15 -8 -11 -14 -16 -4 -34 -11 -40
-15 -5 -4 -59 -26 -120 -49 -60 -24 -148 -61 -195 -84 -47 -23 -88 -41 -93
-42 -10 0 -123 -92 -170 -137 -22 -22 -44 -35 -52 -31 -8 3 -15 1 -15 -4 0 -5
-20 -33 -45 -62 -58 -67 -58 -78 0 -21 25 24 45 41 45 37 0 -15 -47 -77 -53
-70 -4 3 -7 1 -7 -5 0 -6 -10 -22 -23 -36 -36 -39 -62 -79 -77 -116 -6 -14
-15 -32 -20 -40 -6 -8 -15 -26 -20 -40 -18 -42 -44 -90 -60 -108 -8 -9 -16
-35 -18 -56 -2 -22 -10 -49 -18 -60 -17 -25 -17 -23 1 37 8 26 12 54 9 62 -4
8 -1 15 6 15 6 0 8 4 5 10 -7 11 34 110 46 110 4 0 10 9 14 20 3 10 25 48 49
82 60 88 59 88 41 88 -9 0 -14 -4 -11 -9 3 -5 -5 -20 -19 -32 -14 -13 -44 -55
-67 -93 -26 -44 -43 -64 -48 -56 -6 9 -9 10 -15 0 -4 -7 -2 -15 4 -19 8 -5 3
-23 -17 -59 -16 -29 -31 -49 -34 -46 -8 7 -28 -28 -45 -76 l-12 -35 5 40 c3
21 12 52 20 67 15 29 18 58 7 58 -5 0 -16 -17 -25 -38 -10 -20 -16 -29 -13
-19 2 9 1 17 -4 17 -8 0 -53 -108 -57 -136 -3 -21 -47 -144 -51 -144 -20 0 30
178 96 344 18 43 29 81 26 84 -3 3 -19 -9 -35 -27 -17 -18 -30 -31 -30 -29 0
2 4 18 10 36 8 29 7 32 -5 22 -8 -7 -15 -20 -15 -29 0 -9 -7 -24 -14 -34 -24
-31 -30 26 -8 71 23 45 35 92 24 92 -4 0 -18 -21 -30 -46 -13 -26 -26 -44 -29
-40 -3 3 -1 11 4 18 6 7 13 27 17 43 14 59 -20 4 -58 -95 -20 -52 -42 -106
-47 -120 -6 -13 -13 -43 -16 -65 -2 -22 -13 -53 -23 -70 -10 -16 -23 -54 -29
-83 -6 -30 -16 -62 -21 -72 -5 -10 -12 -34 -14 -52 -3 -18 -9 -51 -14 -73 -4
-22 -8 -125 -7 -230 2 -183 4 -212 17 -245 4 -8 11 -33 17 -55 5 -22 19 -73
31 -114 11 -40 18 -76 15 -79 -3 -3 -5 2 -5 11 0 8 -7 22 -15 30 -13 14 -49
135 -59 202 -2 17 -7 48 -10 70 -4 22 -9 69 -11 105 -13 162 -25 173 -25 22 0
-132 15 -256 36 -295 9 -15 13 -36 9 -46 -14 -44 112 -326 213 -476 75 -111
288 -333 400 -417 9 -7 29 -29 44 -50 35 -47 310 -232 377 -254 59 -19 207
-16 220 5 5 7 25 11 47 10 21 -1 55 1 74 6 45 10 118 64 126 93 3 12 12 26 18
30 19 11 53 74 61 110 8 38 -4 140 -14 123 -4 -7 -17 6 -31 31 -60 108 -150
186 -222 191 -24 2 -62 13 -85 25 -42 22 -56 19 -31 -6 16 -16 8 -15 -35 3
-19 8 -37 11 -41 8 -6 -6 -29 3 -128 54 -38 19 -29 -5 12 -32 57 -38 19 -27
-51 16 -73 44 -89 51 -122 50 -10 0 -23 11 -29 25 -6 13 -16 23 -22 21 -20 -7
-81 62 -116 130 -19 37 -36 70 -38 73 -2 2 -7 -2 -12 -10 -6 -10 -13 -4 -27
26 -10 21 -23 44 -29 49 -14 12 -48 135 -40 142 3 4 9 -8 12 -25 3 -17 12 -33
20 -36 7 -3 22 -22 34 -43 37 -68 96 -143 112 -143 4 0 -12 26 -37 58 -28 37
-43 65 -40 74 4 9 2 19 -4 23 -6 3 -11 10 -11 16 0 23 21 3 73 -68 72 -100 95
-120 154 -140 26 -9 63 -25 80 -35 33 -17 33 -17 20 3 -6 11 -28 30 -47 41
-43 27 -99 79 -148 138 -35 42 -35 44 -9 27 16 -10 31 -16 35 -13 3 3 14 -1
24 -11 10 -9 18 -12 18 -7 -1 15 -26 44 -39 44 -14 0 -14 12 -1 28 6 6 7 10 4
7 -11 -8 -71 64 -104 126 -50 95 -83 207 -94 323 -2 25 -1 26 11 10 7 -10 13
-24 13 -31 0 -7 5 -13 10 -13 7 0 9 13 5 33 -3 17 -6 78 -8 134 -1 57 -5 103
-9 103 -5 0 -8 7 -8 15 0 8 -4 15 -8 15 -5 0 -7 24 -6 53 3 73 26 180 35 165
4 -7 11 -9 15 -5 4 3 1 14 -7 23 -11 14 -11 18 6 30 10 8 15 14 10 14 -5 0 1
9 13 20 21 20 27 33 23 54 -1 4 6 20 15 33 13 21 18 23 26 12 5 -8 11 -10 14
-4 5 11 9 18 69 121 22 38 39 73 37 77 -1 4 5 10 13 13 8 4 15 12 15 20 0 8 7
14 15 14 8 0 15 6 15 13 0 18 32 47 52 47 9 0 19 11 22 25 4 14 18 35 31 47
14 12 25 27 25 34 0 18 -38 5 -55 -19 -8 -12 -17 -19 -19 -16 -3 3 5 16 18 30
31 34 50 69 36 69 -5 0 -10 -4 -10 -10 0 -5 -4 -10 -10 -10 -5 0 -7 8 -3 18 7
21 -6 10 -124 -110 -46 -46 -83 -80 -83 -76 0 4 12 20 28 36 15 15 75 80 134
143 77 82 124 123 166 145 32 17 97 52 144 78 83 45 206 91 216 81 5 -4 -42
-25 -58 -25 -4 0 -10 -7 -14 -15 -6 -18 -2 -19 27 -4 19 9 18 7 -3 -10 -29
-24 -17 -27 20 -6 14 8 34 14 45 14 30 0 4 -13 -79 -39 -63 -21 -115 -54 -103
-67 3 -2 15 0 26 7 12 6 21 8 21 4 0 -3 6 -2 13 3 6 6 24 13 39 17 22 5 26 3
22 -9 -4 -8 -9 -15 -13 -15 -4 0 -8 -7 -8 -15 0 -11 10 -14 42 -11 23 2 48 7
56 12 7 4 20 9 29 10 8 1 40 9 70 18 32 9 58 12 64 6 8 -8 -9 -13 -74 -24 -8
-1 -37 -12 -64 -24 -27 -12 -52 -22 -57 -22 -5 0 -9 -4 -9 -10 0 -5 -11 -12
-25 -16 -14 -3 -25 -10 -25 -14 0 -4 -21 -17 -47 -29 -27 -12 -70 -35 -98 -51
-55 -31 -70 -36 -59 -18 5 7 3 8 -7 3 -259 -153 -455 -409 -490 -640 -5 -33
-15 -65 -23 -70 -8 -6 -10 -18 -6 -30 6 -18 9 -16 23 16 8 20 18 51 22 70 4
19 18 52 31 75 13 22 24 49 24 60 0 10 7 28 15 38 8 11 15 30 15 42 0 12 11
36 25 52 13 16 29 42 35 58 8 21 13 25 19 15 7 -11 12 -8 21 10 16 29 166 179
180 179 5 0 13 12 16 26 5 19 11 24 25 21 11 -3 26 1 33 9 8 8 19 14 24 14 6
0 12 3 14 8 5 12 262 130 333 152 22 7 49 16 60 21 11 4 38 10 60 13 22 3 51
8 65 11 35 7 219 7 255 0 17 -3 55 -10 85 -16 30 -6 64 -12 75 -14 57 -12 198
-77 249 -114 32 -24 65 -44 74 -46 10 -1 16 -8 14 -15 -1 -6 2 -9 7 -6 20 13
231 -229 231 -265 0 -7 9 -26 19 -43 28 -45 103 -254 128 -356 28 -111 43
-442 21 -437 -6 1 -13 -4 -16 -12 -2 -8 0 -11 6 -7 18 11 20 -17 6 -73 -8 -30
-12 -56 -10 -58 2 -3 0 -19 -6 -36 -5 -18 -18 -61 -28 -97 -18 -60 -84 -209
-99 -220 -3 -3 -14 -22 -25 -42 -27 -53 -139 -192 -217 -268 -70 -69 -79 -76
-122 -104 -31 -21 -37 -42 -7 -26 35 19 22 5 -42 -46 -62 -48 -157 -112 -219
-147 -40 -22 -31 -34 10 -13 27 14 30 14 25 1 -4 -8 -1 -15 5 -15 10 0 15 14
12 33 -1 5 3 5 10 2 6 -4 23 4 37 18 15 14 51 32 79 41 29 8 69 27 88 42 19
14 35 22 35 16 0 -5 -43 -38 -95 -71 -52 -34 -95 -66 -95 -72 0 -5 -9 -9 -20
-9 -11 0 -25 -9 -32 -20 -7 -11 -18 -20 -25 -20 -7 0 -13 -4 -13 -10 0 -15 11
-12 48 10 18 11 37 20 43 20 6 0 28 13 49 30 20 16 40 27 43 24 3 -4 23 7 44
23 48 38 179 118 165 100 -6 -7 -44 -35 -84 -62 -40 -28 -82 -59 -94 -71 -27
-24 -159 -104 -174 -104 -5 0 -10 -5 -10 -11 0 -6 9 -8 21 -4 12 4 33 9 48 10
66 8 193 70 279 135 28 23 52 37 52 32 0 -17 -188 -149 -295 -206 -27 -15 -66
-44 -85 -64 -19 -21 -56 -46 -83 -56 -26 -10 -45 -22 -42 -26 3 -5 35 4 70 20
36 16 65 27 65 24 0 -2 21 6 48 20 60 30 97 42 88 28 -3 -6 -19 -13 -35 -17
-16 -3 -36 -14 -43 -23 -11 -14 -11 -15 7 -8 11 5 42 17 68 27 27 10 54 22 60
27 25 21 169 94 162 82 -9 -14 -120 -86 -187 -121 -27 -13 -48 -27 -48 -32 0
-19 284 145 350 203 19 17 44 36 55 41 17 9 16 7 -3 -10 -12 -11 -18 -22 -13
-26 10 -6 45 20 87 63 12 12 25 22 29 22 8 0 39 28 111 99 19 18 37 32 39 29
5 -4 -167 -175 -228 -227 -37 -30 -40 -31 -53 -14 -7 10 -14 16 -14 13 -8 -35
-7 -38 8 -32 15 5 16 4 2 -13 -15 -19 -15 -19 15 -1 17 10 40 28 53 39 12 11
22 16 22 10 0 -6 -21 -27 -47 -46 -27 -20 -57 -45 -68 -55 -30 -29 -143 -101
-163 -104 -9 -2 -25 -11 -36 -20 -10 -9 -56 -36 -101 -59 -46 -24 -82 -47 -79
-51 6 -9 29 0 140 54 49 24 94 44 99 44 6 1 16 2 23 3 6 0 12 7 12 15 0 14 36
32 53 28 4 -1 17 2 27 8 11 6 20 7 20 3 0 -16 -268 -153 -298 -153 -10 0 -45
-11 -78 -24 -34 -13 -84 -29 -112 -36 -29 -6 -52 -16 -52 -20 0 -9 32 -5 95
12 22 6 56 13 75 15 32 4 79 21 121 43 9 5 33 12 53 15 20 4 40 13 44 21 4 7
34 20 66 28 33 9 65 24 72 35 8 11 28 22 44 26 21 5 30 13 30 26 0 10 7 19 15
19 8 0 15 5 15 10 0 6 7 10 16 10 22 0 92 52 97 72 3 10 14 18 25 18 12 0 50
29 89 66 37 37 62 63 54 59 -22 -13 -3 14 52 72 55 58 113 135 152 203 15 25
37 63 50 85 13 22 21 47 19 57 -3 9 6 27 18 41 13 14 30 44 39 68 9 24 26 68
38 97 11 28 16 52 11 52 -6 0 -10 -7 -10 -17 0 -9 -3 -14 -6 -10 -3 3 1 27 9
54 9 26 19 66 22 88 3 22 15 69 26 105 11 36 23 85 25 110 3 25 9 68 12 95 4
28 4 88 0 135 -4 47 -9 112 -11 145 -6 87 -48 319 -70 390 -2 6 -11 33 -19 60
-65 207 -214 468 -348 608 -30 32 -58 67 -62 78 -4 11 -13 17 -19 14 -5 -4
-18 0 -28 9 -10 9 -31 19 -46 22 -22 4 -26 2 -21 -11 4 -11 2 -14 -7 -8 -6 4
-22 6 -34 4 -13 -1 -23 2 -23 8 0 10 -52 42 -65 41 -3 -1 -23 9 -44 21 -27 15
-38 27 -34 38 4 14 3 14 -6 1 -9 -13 -14 -13 -40 3 -16 9 -34 17 -41 17 -6 0
-18 6 -25 13 -36 31 -44 36 -49 28 -8 -12 42 -56 98 -85 76 -40 136 -80 137
-91 0 -5 19 -24 42 -40 23 -17 42 -35 43 -40 0 -6 20 -30 44 -54 51 -53 194
-271 177 -271 -3 0 -19 24 -36 53 -17 28 -31 48 -31 43 0 -6 -14 4 -31 22 -17
17 -28 35 -25 40 2 4 0 14 -6 22 -8 12 -9 11 -4 -4 6 -17 5 -17 -11 -5 -9 8
-40 37 -69 64 -67 65 -159 133 -239 176 -22 12 -42 25 -45 29 -7 11 -206 104
-265 125 -27 9 -113 32 -190 51 -153 37 -343 51 -440 33z m393 -95 c37 -8 85
-20 107 -26 41 -11 197 -79 192 -84 -2 -2 -45 10 -97 27 -52 17 -121 32 -154
34 -32 3 -68 11 -80 18 -24 16 -57 24 -141 33 -33 3 -62 8 -64 10 -12 11 179
2 237 -12z m-683 -64 c-3 -5 -14 -10 -23 -9 -14 0 -13 2 3 9 27 11 27 11 20 0z
m-57 -23 c-7 -8 -31 -22 -53 -32 -22 -10 -43 -20 -47 -22 -5 -2 -8 -2 -8 1 0
6 102 65 113 66 5 0 2 -6 -5 -13z m1136 -39 c85 -43 265 -192 250 -207 -3 -3
-8 -1 -12 4 -12 17 -90 75 -101 75 -5 0 -16 6 -23 14 -8 7 -33 23 -56 35 -79
40 -142 86 -142 102 0 12 30 4 84 -23z m-701 -45 c-7 -2 -19 -2 -25 0 -7 3 -2
5 12 5 14 0 19 -2 13 -5z m1047 -228 c7 -8 8 -15 2 -15 -5 0 -15 7 -22 15 -7
8 -8 15 -2 15 5 0 15 -7 22 -15z m-145 -93 c-6 -7 -95 80 -95 92 0 6 22 -12
50 -39 27 -27 47 -51 45 -53z m-1455 58 c0 -5 -5 -10 -11 -10 -5 0 -7 5 -4 10
3 6 8 10 11 10 2 0 4 -4 4 -10z m1529 -134 c-3 -3 -11 5 -18 17 -13 21 -12 21
5 5 10 -10 16 -20 13 -22z m-1920 -5 c-6 -15 -18 -37 -27 -47 -9 -11 -30 -38
-46 -61 -16 -24 -31 -43 -34 -43 -5 0 21 42 54 87 28 37 31 51 7 32 -13 -11
-13 -8 2 12 13 18 22 23 27 15 5 -6 8 -2 8 12 0 12 4 22 9 22 6 0 6 -11 0 -29z
m2265 -7 c3 -8 2 -12 -4 -9 -6 3 -10 10 -10 16 0 14 7 11 14 -7z m-2224 -78
c0 -2 -8 -10 -17 -17 -16 -13 -17 -12 -4 4 13 16 21 21 21 13z m-592 -33 c-15
-34 -28 -51 -28 -35 0 18 22 62 31 62 5 0 3 -12 -3 -27z m417 -37 c-15 -25
-32 -49 -38 -53 -6 -4 -1 9 11 28 13 18 28 44 34 57 6 12 13 20 16 18 2 -3 -8
-25 -23 -50z m142 12 c-3 -8 -6 -5 -6 6 -1 11 2 17 5 13 3 -3 4 -12 1 -19z
m-126 -41 c-10 -9 -11 -8 -5 6 3 10 9 15 12 12 3 -3 0 -11 -7 -18z m-370 -27
c-21 -22 -24 -18 -10 14 8 17 15 22 20 15 3 -6 -1 -19 -10 -29z m36 -272 c-3
-8 -6 -5 -6 6 -1 11 2 17 5 13 3 -3 4 -12 1 -19z m260 -184 c-1 -2 -8 0 -14 4
-7 5 -10 18 -6 32 7 25 7 25 14 -5 5 -16 7 -30 6 -31z m-241 -418 c4 -26 2
-36 -5 -31 -6 3 -11 22 -11 42 0 45 8 39 16 -11z m309 -117 c9 -17 14 -33 11
-36 -3 -3 -10 7 -16 22 -6 15 -13 32 -16 36 -3 5 -3 9 0 9 3 0 13 -14 21 -31z
m-526 -224 c0 -5 -4 -3 -9 5 -5 8 -9 22 -9 30 0 16 17 -16 18 -35z m-1 -70
c-3 -3 -9 2 -12 12 -6 14 -5 15 5 6 7 -7 10 -15 7 -18z m2602 -288 c0 -2 -10
-12 -22 -23 l-23 -19 19 23 c18 21 26 27 26 19z m-225 -99 c-26 -29 -57 -59
-69 -67 -19 -14 10 21 77 90 47 49 41 32 -8 -23z m154 23 c-7 -10 -21 -24 -33
-31 -15 -9 -12 -3 8 19 34 35 41 39 25 12z m359 -27 c-37 -52 -63 -74 -34 -29
35 55 51 74 59 75 5 0 -7 -21 -25 -46z m-438 -38 c0 -2 -8 -10 -17 -17 -16
-13 -17 -12 -4 4 13 16 21 21 21 13z m10 -106 c0 -5 -5 -10 -11 -10 -5 0 -7 5
-4 10 3 6 8 10 11 10 2 0 4 -4 4 -10z m175 -70 c-3 -5 -12 -10 -18 -10 -7 0
-6 4 3 10 19 12 23 12 15 0z"/>
<path d="M1740 4010 c0 -5 7 -7 15 -4 8 4 15 8 15 10 0 2 -7 4 -15 4 -8 0 -15
-4 -15 -10z"/>
<path d="M1635 3953 c-27 -19 -67 -43 -89 -54 -32 -17 -150 -125 -269 -245
-35 -36 -52 -64 -37 -64 5 0 10 5 10 11 0 5 5 7 12 3 6 -4 8 -3 4 4 -6 11 10
26 29 27 6 0 28 20 50 45 22 24 56 58 75 74 19 17 55 51 80 76 43 45 130 110
147 110 4 1 22 12 38 25 45 37 8 28 -50 -12z"/>
<path d="M3380 3942 c0 -12 19 -26 26 -19 2 2 -2 10 -11 17 -9 8 -15 8 -15 2z"/>
<path d="M3437 3901 c12 -10 19 -22 15 -25 -3 -4 2 -4 12 0 17 7 17 8 -5 25
-31 24 -51 24 -22 0z"/>
<path d="M3513 3845 c0 -8 6 -15 14 -15 7 0 13 7 13 15 0 8 -6 15 -13 15 -8 0
-14 -7 -14 -15z"/>
<path d="M1326 3824 c-5 -14 -4 -15 9 -4 17 14 19 20 6 20 -5 0 -12 -7 -15
-16z"/>
<path d="M1578 3806 c-10 -7 -18 -16 -18 -20 0 -11 21 -6 36 8 26 27 13 36
-18 12z"/>
<path d="M1247 3775 c-24 -23 -40 -55 -28 -55 5 0 11 -8 13 -17 3 -15 9 -13
36 14 18 17 32 41 32 52 0 25 -20 28 -21 4 0 -16 -1 -16 -8 1 -7 17 -8 17 -24
1z"/>
<path d="M1533 3763 c-15 -5 -17 -23 -4 -23 5 0 11 7 15 15 3 8 4 15 3 14 -1
0 -8 -3 -14 -6z"/>
<path d="M1935 3725 c-17 -13 -25 -24 -20 -24 13 0 59 38 54 44 -3 2 -18 -7
-34 -20z"/>
<path d="M1766 3674 c-9 -24 -7 -28 9 -14 17 14 20 30 6 30 -5 0 -12 -7 -15
-16z"/>
<path d="M1978 3677 c-16 -6 -28 -17 -28 -24 0 -15 17 -8 55 21 23 18 12 19
-27 3z"/>
<path d="M1360 3600 c-17 -22 -28 -40 -23 -40 12 0 76 80 64 80 -5 0 -24 -18
-41 -40z"/>
<path d="M1477 3633 c-4 -3 -7 -11 -7 -17 0 -6 5 -5 12 2 6 6 9 14 7 17 -3 3
-9 2 -12 -2z"/>
<path d="M1895 3629 c-10 -15 3 -25 16 -12 7 7 7 13 1 17 -6 3 -14 1 -17 -5z"/>
<path d="M1865 3610 c-3 -5 -1 -10 4 -10 6 0 11 5 11 10 0 6 -2 10 -4 10 -3 0
-8 -4 -11 -10z"/>
<path d="M1790 3560 c0 -5 4 -10 9 -10 6 0 13 5 16 10 3 6 -1 10 -9 10 -9 0
-16 -4 -16 -10z"/>
<path d="M1174 3508 c-4 -7 -14 -23 -22 -35 -8 -13 -10 -23 -4 -23 5 0 19 16
31 35 11 19 16 35 11 35 -5 0 -12 -6 -16 -12z"/>
<path d="M1120 3315 c-7 -9 -8 -15 -2 -15 5 0 12 7 16 15 3 8 4 15 2 15 -2 0
-9 -7 -16 -15z"/>
<path d="M1075 3241 c-3 -5 -1 -12 4 -15 5 -3 11 1 15 9 6 16 -9 21 -19 6z"/>
<path d="M1056 3194 c-5 -14 -4 -15 9 -4 17 14 19 20 6 20 -5 0 -12 -7 -15
-16z"/>
<path d="M3382 3115 c6 -14 15 -25 19 -25 5 0 3 11 -3 25 -6 14 -15 25 -19 25
-5 0 -3 -11 3 -25z"/>
<path d="M3416 3025 c4 -8 10 -15 15 -15 4 0 6 7 3 15 -4 8 -10 15 -15 15 -4
0 -6 -7 -3 -15z"/>
<path d="M4117 3009 c4 -15 8 -17 14 -8 8 14 3 29 -11 29 -4 0 -6 -9 -3 -21z"/>
<path d="M3440 2973 c0 -4 5 -15 10 -23 8 -13 10 -13 10 2 0 9 -4 20 -10 23
-5 3 -10 3 -10 -2z"/>
<path d="M4130 2960 c0 -5 5 -10 10 -10 6 0 10 5 10 10 0 6 -4 10 -10 10 -5 0
-10 -4 -10 -10z"/>
<path d="M3456 2915 c4 -8 10 -15 15 -15 4 0 6 7 3 15 -4 8 -10 15 -15 15 -4
0 -6 -7 -3 -15z"/>
<path d="M4135 2900 c3 -5 8 -10 11 -10 2 0 4 5 4 10 0 6 -5 10 -11 10 -5 0
-7 -4 -4 -10z"/>
<path d="M3481 2813 c5 -21 9 -41 9 -45 0 -5 4 -8 9 -8 4 0 4 20 -2 45 -6 25
-14 45 -18 45 -4 0 -3 -17 2 -37z"/>
<path d="M3545 2771 c-3 -5 -1 -12 5 -16 5 -3 10 1 10 9 0 18 -6 21 -15 7z"/>
<path d="M3498 2725 c5 -28 20 -33 29 -9 3 9 0 20 -8 25 -22 14 -27 11 -21
-16z"/>
<path d="M3554 2678 c2 -18 4 -43 5 -55 0 -13 5 -23 10 -23 4 0 7 12 6 28 -1
15 -3 39 -3 55 -1 15 -6 27 -12 27 -5 0 -8 -15 -6 -32z"/>
<path d="M3504 2664 c7 -39 16 -42 16 -6 0 18 -5 32 -10 32 -6 0 -8 -12 -6
-26z"/>
<path d="M3510 2590 c0 -18 5 -30 13 -30 9 0 12 10 9 30 -2 17 -8 30 -13 30
-5 0 -9 -13 -9 -30z"/>
<path d="M671 2584 c0 -11 3 -14 6 -6 3 7 2 16 -1 19 -3 4 -6 -2 -5 -13z"/>
<path d="M3563 2550 c5 -31 17 -36 17 -7 0 15 -4 27 -10 27 -5 0 -9 -9 -7 -20z"/>
<path d="M3513 2478 c0 -76 -12 -198 -20 -210 -2 -5 0 -8 5 -8 13 0 21 32 29
110 10 104 9 173 -3 177 -7 2 -11 -22 -11 -69z"/>
<path d="M1314 2404 c3 -9 9 -27 12 -40 3 -13 12 -24 19 -24 11 0 10 9 -3 40
-16 37 -42 59 -28 24z"/>
<path d="M3475 2178 c-9 -40 -28 -100 -43 -133 -51 -117 -159 -286 -230 -361
-11 -12 -11 -14 2 -14 9 0 16 5 16 10 0 6 6 10 14 10 12 0 67 71 102 131 6 10
18 27 26 36 8 10 25 41 38 68 13 28 28 53 34 57 6 4 8 8 3 8 -4 0 4 23 19 51
14 28 23 57 20 64 -2 7 1 18 7 24 6 6 8 11 5 11 -3 0 0 21 8 47 16 54 17 63 5
63 -5 0 -17 -33 -26 -72z"/>
<path d="M1450 2085 c1 -17 29 -49 37 -41 4 3 -3 16 -15 29 -12 12 -22 17 -22
12z"/>
<path d="M1270 1982 c0 -11 5 -24 10 -27 6 -4 9 2 7 14 -4 29 -17 39 -17 13z"/>
<path d="M1545 1940 c3 -5 8 -10 11 -10 2 0 4 5 4 10 0 6 -5 10 -11 10 -5 0
-7 -4 -4 -10z"/>
<path d="M1550 1904 c0 -12 50 -58 56 -52 2 3 -10 17 -26 33 -17 16 -30 24
-30 19z"/>
<path d="M1515 1730 c10 -11 23 -20 28 -20 6 0 2 9 -8 20 -10 11 -23 20 -28
20 -6 0 -2 -9 8 -20z"/>
<path d="M1630 1720 c0 -5 5 -10 11 -10 5 0 7 5 4 10 -3 6 -8 10 -11 10 -2 0
-4 -4 -4 -10z"/>
<path d="M3156 1625 c-25 -23 -34 -35 -23 -35 9 0 19 5 22 11 4 6 13 8 21 5 8
-3 11 0 7 9 -3 8 2 18 11 21 16 6 23 24 9 24 -5 -1 -26 -16 -47 -35z"/>
<path d="M3098 1554 c-16 -8 -28 -19 -28 -24 0 -11 69 21 70 33 0 10 -11 8
-42 -9z"/>
<path d="M2993 1468 c-13 -6 -23 -15 -23 -20 0 -5 8 -4 19 1 10 6 20 8 23 6 3
-3 5 2 5 10 0 8 -1 15 -1 14 -1 0 -11 -5 -23 -11z"/>
<path d="M2946 1421 c9 -9 -49 -38 -69 -35 -21 4 -21 4 -2 -4 19 -9 19 -9 -2
-16 -13 -4 -23 -12 -23 -18 0 -8 38 10 113 56 22 14 22 22 -3 22 -10 0 -17 -2
-14 -5z"/>
<path d="M2657 1073 c-12 -12 -7 -22 8 -17 8 4 15 10 15 15 0 11 -14 12 -23 2z"/>
</g>
</svg>
